<svg width="17" height="19" viewBox="0 0 17 19" fill="none" xmlns="http://www.w3.org/2000/svg">
<path d="M13.8576 0.101642C13.1941 -0.22403 9.83079 0.147954 7.40473 2.47427C3.58395 6.2903 3.67568 11.3158 3.67568 11.3158C3.67568 11.3158 3.5498 11.8333 3.01127 11.083C1.83327 9.58235 2.45048 6.1285 2.51935 5.64697C2.61673 4.9698 2.18477 4.94902 2.00457 5.17345C-2.25113 11.0828 1.59251 15.9221 4.10971 17.4581C7.0559 19.2557 12.869 19.2551 15.1849 14.1545C18.0679 7.80228 14.6886 0.509251 13.8576 0.101642Z" fill="#79AC6A"/>
<path d="M13.7916 5.70625C14.087 3.7252 14.0888 1.81689 13.8459 0.0973927C13.1601 -0.21967 9.81881 0.159143 7.40492 2.47417C3.58414 6.29021 3.67587 11.3157 3.67587 11.3157C3.67587 11.3157 3.55 11.8332 3.01146 11.083C1.83346 9.58225 2.45067 6.12841 2.51954 5.64688C2.61692 4.96971 2.18497 4.94892 2.00476 5.17336C-0.567362 8.74477 -0.179347 11.9237 1.08445 14.2206C2.34943 15.5788 3.78898 16.4715 5.12225 16.6704C8.92225 17.2375 12.803 12.3286 13.7916 5.70625Z" fill="#CAE5C2"/>
<path d="M13.7914 5.70625C14.0868 3.7252 14.0886 1.81689 13.8458 0.0973874C13.16 -0.219675 10.4985 0.881731 8.0843 3.19736C4.26352 7.01309 3.67571 11.3157 3.67571 11.3157C3.67571 11.3157 3.54983 11.8332 3.0113 11.083C1.8333 9.58225 2.23824 6.98964 2.30741 6.5084C2.40508 5.83093 1.97283 5.81045 1.79263 6.03489C-0.779198 9.60629 -0.179213 11.924 1.08488 14.2206C2.34986 15.5788 3.78941 16.4715 5.12268 16.6704C8.92208 17.2375 12.8028 12.3286 13.7914 5.70625Z" fill="#99C08E"/>
</svg>
